<svg xmlns="http://www.w3.org/2000/svg" viewBox="0 0 731.73 839.51"><title>drown1white</title><rect width="731.73" height="839.51" fill="#fff"/><path d="M489.15,475.55c2.22-9.72-18.75-130.17-59.52-276.39C409.92,128.49,364.1,83.49,260,107c-68.86,15.52-152.92,105.83-167.5,182-19.4,101.29,90.88,167.11,149.37,200.69C330.49,540.54,394.39,539.27,489.15,475.55Z" fill="#4564ad"/><path d="M362.25,316.69a37.43,37.43,0,0,1-3.65,10.61c-8.1,15.37-24.68,20.1-29.07,21.2" fill="none" stroke="#4564ad" stroke-miterlimit="10"/><path d="M331.79,487.19s19-3.25,36.75,6.1c59.6,31.33,166.49-78.72,166.49-95,0-21.4-13.66-27.2-15-29.16-31.23-46.5-31.69-73.7-53.51-80.11a122.17,122.17,0,0,0-26.22-4.37s-7-18.42-9.47-26.95c-7.23-24.82-79.85-47.14-94-42.25-39.4,13.65-67.77,72.62-59,139.13.93,7.05-13.14,17.21-10.2,29.14,4.29,17.39,9.48,26.37,16.49,42.42,3.2,7.35,6.09,15.12,6.09,15.12s-26.13-3.6-34.23,3.65c-7.69,6.87-5.94,27.47,4.37,35.69,11,8.81,19.82,3.64,33.68,13.11C305,501.17,308.71,507,317.2,507.57c5.26.37,11.21-4,13.39-8.93A21.42,21.42,0,0,0,331.79,487.19Z" fill="#f9b75c"/><path d="M526.13,414.08s-24.81,26.67-30.06,78.1c-4.21,41.27,18.49,92.34,52.9,103.46,27.26,8.82,46-12.6,66,0,19,12,30.32,59.34,19.86,54.62-178.83-80.62-383.52,100.11-493,116.2-32.22,4.74,27.54-89.54,74-116.46,59.57-34.5,118.43-9.25,136.2-41.45,16.17-29.33-20.74-124.34-20.74-124.34Z" fill="#f9b75c"/><path d="M378.21,272.51c2.31,8,6.05,11.76,9.09,13.76,13.05,8.59,32.76-4.82,51.64,3.68,2.82,1.26,5.93,3.45,9.56,11.81a23.87,23.87,0,0,1,1.72,12" fill="none" stroke="#1d1d1b" stroke-miterlimit="10"/><path d="M426.74,321.32c2.83-2.2,5-1.81,6.49-4.25,1.3-2.15,1.41-5.46,0-6.48-2-1.47-7.6,1.51-10.49,5.73-3.95,5.79-2.62,13.53-1.49,13.73C422.2,330.22,422.17,324.85,426.74,321.32Z"/><path d="M459,346.93c-1.34-.6-3.1.7-4.19,1.9a7.05,7.05,0,0,0-1.74,4s2.6,5.38,4.08,5.93c2,.74,4.43-1.29,5.4-3.34C463.74,352.87,460.61,347.67,459,346.93Z" fill="#fff"/><path d="M452.53,354.3c-1.29-.59-1.89-.59-2.77.19,0,0-1.59,2.67-1.52,4.31,0,0,2.43,3.53,3.85,4.1a3.78,3.78,0,0,0,4.62-1.91C457.54,359.23,454.1,355,452.53,354.3Z" fill="#fff"/><path d="M448.78,360.39c-1-.44-2.12.25-2.82.92a3.37,3.37,0,0,0-1,2.33s2.1,3.41,3.17,3.82c1.43.56,3-.54,3.58-1.73C452.42,364.25,450,360.92,448.78,360.39Z" fill="#fff"/><path d="M465.62,340.4c-1.33-.61-3.09.69-4.19,1.89a7.18,7.18,0,0,0-1.73,4s2.6,5.38,4.08,5.93c2,.74,4.43-1.28,5.39-3.34C470.36,346.33,467.23,341.13,465.62,340.4Z" fill="#fff"/><path d="M472,336.25c-1.26-.58-2.88.54-3.88,1.59a5.81,5.81,0,0,0-1.52,3.5s2.57,4.87,4,5.41c1.88.71,4.11-1,5-2.85C476.55,341.67,473.48,337,472,336.25Z" fill="#fff"/><path d="M478.46,332.56c-1.27-.58-2.88.54-3.88,1.58a5.83,5.83,0,0,0-1.52,3.51s2.57,4.87,4,5.41c1.89.71,4.12-1,5-2.85C483.05,338,480,333.26,478.46,332.56Z" fill="#fff"/><path d="M485.4,329c-1.27-.57-2.88.54-3.88,1.59a5.79,5.79,0,0,0-1.52,3.5s2.57,4.88,4,5.41c1.89.71,4.12-1,5-2.85C490,334.44,486.92,329.72,485.4,329Z" fill="#fff"/><path d="M441.82,378.83s15.52-2.14,43.9-18.87c7.17-4.22,14.88-7.35,15.54-13.59a10.38,10.38,0,0,0-3.69-9.15c-1.29-1.13-5.07-2.19-12.62.4s-22.77,13.85-29.76,22.28C444.26,373.11,441.82,378.83,441.82,378.83Z" fill="#ea4f8f"/><path d="M441.82,378.83s-8.72-38.65,4.21-45.59c2-1.05,5.45-2,9.8-5.58,5.35-4.35,4.79-6.67,8.3-8.6,6.53-3.59,16.25.19,21.72,5.13,3.73,3.36,7.37,8.94,5.89,10.86-.86,1.11-.21,1.33-5.31,1a43.24,43.24,0,0,0-12.79,1.25c-6,1.9-11.63,7.64-14.1,11C446,366.51,441.82,378.83,441.82,378.83Z" fill="#ea4f8f"/><path d="M444.48,303.43c-1.61.26-2.69,2.41-2.58,4.13.18,3,4,5.37,5.68,4.52,1.29-.64,1.43-3.19.9-4.91S446.33,303.12,444.48,303.43Z"/><path d="M400.9,321.14c-2.9,6.66-1.14,13.86,3.54,17.15,4.13,2.91,11.07,3.15,14.33-.35a7.3,7.3,0,0,0,1.59-2.83" fill="none" stroke="#1d1d1b" stroke-miterlimit="10"/><path d="M331.8,347.59s5.52,2.16,5.92,4.56c.61,3.61-.71,6-.34,6.15s3.38-3.5,2.94-7.62c-.22-2.1-1.22-3.5-.86-3.73s2.26,1.22,3.11,3.29c1.4,3.38-.54,6.71-.17,6.85s3.27-3.66,2.77-8.06c-.27-2.45-1.45-3.86-1.12-4.07s3.29,2.06,3.9,5.28c.35,1.86-.21,3.12.08,3.21.48.15,2.83-3,2.26-6.07-.49-2.58-2.8-3.92-2.34-4.67.34-.57,1.89-.42,3.12.08,3.77,1.57,4.85,6.71,5.19,6.59s-1.34-4.07-1.3-9.19c0-2.7,0-3.13.26-3.29,1.88-1.08,9,8.63,9.79,8.06s-6.71-11.15-4.93-12.82c1.51-1.43,9,4.29,9.53,3.63s-7.68-6.24-6.67-8.66c.81-2,8.24.57,8.75-.78.44-1.2-9.44-9.64-9.44-9.64S357.73,329,351,335.86C344.1,342.87,331.8,347.59,331.8,347.59Z"/><path d="M349.46,283.1c.3,2.25-3.25,4.38-13.69,10.09-22.23,12.17-22.55,11.51-25.47,13.7-17.78,13.32-13.88,43.62-15.61,43.48-1.53-.12-5.91-23.68,5.76-46.12,2.32-4.47,12.53-24.09,30.27-26.43C339.2,276.7,349,279.58,349.46,283.1Z"/><path d="M374.69,252.11c.05,3.33,3.55,7.13,7.21,7.45,7.89.69,10.3-15.36,21.62-17.54,9-1.72,17.13,6.46,17.41,6s-7.18-8.25-18-9.64C389.52,236.65,374.59,245.16,374.69,252.11Z"/><path d="M526.13,414.08,396.71,474.81s15.52,30,30,31.52,22.43-12.33,45.77-12c10.62.15,23.57-2.14,23.57-2.14S508.94,429.62,526.13,414.08Z" fill="#a3763e" opacity="0.47"/><path d="M433.64,277.52c3.65-1,5.29-1.31,7.13-.92A10,10,0,0,1,445,279s-1.57-.86-6.59-.48c-2.32.18-4.17,0-4.19.55s5.52,3,5.36,3c-1.7.8-10.5-.9-11,.75-.32,1,2.67,2.77,2.5,3-.29.43-8.61-3.26-8.61-3.26s3.35,4.83,3,5-3.91-3.71-5.89-3.53c-1.38.12-3.38,4.79-3.38,4.79s-2-4.07-1.86-5.13c.29-1.77,6.16,1.62,12.73-4.16C428.27,278.56,430.5,278.43,433.64,277.52Z" fill="#1d1d1b"/><path d="M329.63,442.71c7.84-13.59-21.94-32-21.2-75.53.47-27.71,13.17-59.14,30.48-62.28,13.56-2.46,24.89,13.36,33.79,8,7.75-4.71,5.25-21.58,12.93-28.29,0,0,2,3.2,8.86,4.39,9.46,1.64,22.65-5.7,44.45,1,4.83,1.48,5.24,8,9.49,9.82,8.94,3.89,20.34,3.28,23.65,4.88,21.35,10.3,25.45,30.08,45.76,52.77,2.35,2.63,16,33.42,28.88,29.2,24.65-8,39.31-125.37-18.73-196.16C470.54,120.4,285,23.18,204.32,71.14,113.9,124.91,11.24,335.27,56.3,399.9c16.69,23.94,65.28,407.4,93,414.24,5.14,1.26,421.33-1,531-75.35C768.62,679,570.52,526.94,557.78,532.45c-44.41,19.23-155.3-21-189.24-39.16C346.92,481.74,326.6,448,329.63,442.71Z" fill="#fff" opacity="0.86"/><path d="M504.63,198.39c-55.13,33.53-70.78-83.72-225.7-6.4-135.42,67.59-100.67,275.87-2.06,348.17,99.1,72.65,274.89-29.43,387,50.2,65.53,46.54,79.75,116.07,37.38,174.35-62.48,85.94-655.92,82-644.28-81.88C71.7,475.44,35.5,313.26,72.59,170.28,115,6.61,433.72-14.24,489.06,72.5,518.21,118.17,544.92,173.89,504.63,198.39Z" fill="#fff" opacity="0.72"/></svg>